<svg width="140" height="140" viewBox="0 0 140 140" fill="none" xmlns="http://www.w3.org/2000/svg">
<path d="M74.8125 70C74.8125 58.7212 83.7287 49.5862 94.7187 49.5862C105.717 49.5862 114.625 58.7125 114.625 70C114.625 81.2787 105.717 90.4137 94.7187 90.4137C83.7375 90.4137 74.8125 81.2875 74.8125 70Z" fill="#1ABCFE"/>
<path d="M35 110.836C35 99.5575 43.9163 90.4138 54.9063 90.4138H74.8125V110.836C74.8125 122.106 65.8963 131.25 54.9063 131.25C43.9163 131.25 35 122.106 35 110.836Z" fill="#0ACF83"/>
<path d="M74.8125 8.75V49.5862H94.7187C105.717 49.5862 114.625 40.4425 114.625 29.1637C114.625 17.8937 105.717 8.75 94.7187 8.75H74.8125Z" fill="#FF7262"/>
<path d="M35 29.1637C35 40.4425 43.9163 49.5862 54.9063 49.5862H74.8125V8.75H54.9063C43.9163 8.75 35 17.8937 35 29.1637Z" fill="#F24E1E"/>
<path d="M35 70C35 81.2787 43.9163 90.4137 54.9063 90.4137H74.8125V49.5862H54.9063C43.9163 49.5862 35 58.7125 35 70Z" fill="#A259FF"/>
</svg>
